<?xml version="1.0" encoding="UTF-8"?>
<svg width="143.42mm" height="95.394mm" version="1.1" viewBox="0 0 143.42 95.394" xmlns="http://www.w3.org/2000/svg">
 <g transform="translate(-9.1766 -97.44)">
  <g transform="matrix(.20056 0 0 .20056 -193.96 38.04)" style="isolation:isolate">
   <path d="m1048.3 738.65c2.032 1.625 3.908 3.366 5.627 5.221 10.046 10.844 12.958 26.941 12.958 26.941s-20.539 0.884-35.464-11.049c-14.925-11.932-18.585-32.161-18.585-32.161s20.538-0.884 35.464 11.048z" fill="#083749"/>
   <path d="m1042.8 743.25c6.762 17.872 24.885 27.577 24.885 27.577s7.158-19.272 0.396-37.143c-6.763-17.872-24.886-27.577-24.886-27.577s-7.158 19.271-0.395 37.143z" fill="#1a8bb8"/>
   <circle cx="1326.4" cy="461.18" r="45.166" fill="#f2f2f2" vector-effect="non-scaling-stroke"/>
   <path d="m1699.4 402.52h-253.1v-52.962h253.1zm-251.99-1.115h250.87v-50.732h-250.87z" fill="#3f3d56"/>
   <g fill="#1a8bb8">
    <rect x="1429" y="360.15" width="251.99" height="51.847"/>
    <circle cx="1269.7" cy="306.77" r="3.9025" vector-effect="non-scaling-stroke"/>
    <circle cx="1283.1" cy="306.77" r="3.9025" vector-effect="non-scaling-stroke"/>
   </g>
   <g opacity=".35">
    <path d="m1728 601.68h-469.41v-305.51h469.41zm-661 170.14 659.88-171.26v-303.28h-467.18z" fill="#f2f2f2"/>
   </g>
   <circle cx="1296.5" cy="306.77" r="3.9025" fill="#1a8bb8" vector-effect="non-scaling-stroke"/>
   <g fill="#3f3d56">
    <rect x="1259.1" y="313.09" width="468.3" height="1.115"/>
    <path d="m1270.9 309.56c-1.804 0-3.43-1.086-4.121-2.753-0.69-1.666-0.308-3.585 0.967-4.86 1.276-1.276 3.194-1.657 4.861-0.967 1.666 0.69 2.753 2.316 2.753 4.12 0 2.462-1.998 4.457-4.46 4.46zm0-7.805c-1.353 0-2.573 0.815-3.091 2.065-0.517 1.25-0.231 2.689 0.726 3.646 0.956 0.956 2.395 1.242 3.645 0.725 1.25-0.518 2.065-1.738 2.065-3.091 0-1.846-1.499-3.342-3.345-3.345z"/>
    <path d="m1284.2 309.56c-1.804 0-3.43-1.086-4.121-2.753-0.69-1.666-0.308-3.585 0.967-4.86 1.276-1.276 3.194-1.657 4.861-0.967 1.666 0.69 2.753 2.316 2.753 4.12 0 2.462-1.998 4.457-4.46 4.46zm0-7.805c-1.353 0-2.573 0.815-3.091 2.065-0.517 1.25-0.231 2.689 0.726 3.646 0.956 0.956 2.395 1.242 3.645 0.725 1.25-0.518 2.065-1.738 2.065-3.091 0-1.846-1.499-3.342-3.345-3.345z"/>
    <path d="m1297.6 309.56c-2.463 0-4.46-1.996-4.46-4.46 0-2.463 1.997-4.46 4.46-4.46s4.46 1.997 4.46 4.46c0 2.462-1.998 4.457-4.46 4.46zm0-7.805c-1.353 0-2.573 0.815-3.091 2.065-0.517 1.25-0.231 2.689 0.725 3.646 0.957 0.956 2.396 1.242 3.646 0.725 1.25-0.518 2.065-1.738 2.065-3.091 0-1.846-1.499-3.342-3.345-3.345z"/>
    <rect x="1405.6" y="313.64" width="1.115" height="287.92"/>
   </g>
   <rect x="1458.9" y="455.2" width="81.952" height="11.15" fill="#f2f2f2"/>
   <rect x="1587.6" y="455.2" width="81.952" height="11.15" fill="#f2f2f2"/>
   <path d="m1545.8 461.33h-83.067v-12.265h83.067zm-81.952-1.115h80.837v-10.035h-80.837z" fill="#3f3d56"/>
   <rect x="1458.9" y="541.61" width="81.952" height="11.15" fill="#f2f2f2"/>
   <path d="m1545.8 547.75h-83.067v-12.265h83.067zm-81.952-1.115h80.837v-10.035h-80.837z" fill="#3f3d56"/>
   <rect x="1459.1" y="497.29" width="210.73" height="11.15" fill="#f2f2f2"/>
   <g fill="#3f3d56">
    <path d="m1674.9 504.54h-211.85v-12.265h211.85zm-210.73-1.115h209.62v-10.035h-209.62z"/>
    <path d="m1674.6 461.33h-83.067v-12.265h83.067zm-81.952-1.115h80.837v-10.035h-80.837z"/>
    <path d="m1334 494.53c-25.328 0-45.861-20.532-45.861-45.861 0-25.328 20.533-45.861 45.861-45.861s45.861 20.533 45.861 45.861c-0.028 25.317-20.544 45.833-45.861 45.861zm0-90.332c-24.561 0-44.471 19.91-44.471 44.471s19.91 44.472 44.471 44.472 44.471-19.911 44.471-44.472c-0.027-24.549-19.922-44.443-44.471-44.471z"/>
   </g>
  </g>
 </g>
</svg>
