<?xml version="1.0" encoding="UTF-8" standalone="no"?>
<svg
   xmlns:dc="http://purl.org/dc/elements/1.1/"
   xmlns:cc="http://creativecommons.org/ns#"
   xmlns:rdf="http://www.w3.org/1999/02/22-rdf-syntax-ns#"
   xmlns:svg="http://www.w3.org/2000/svg"
   xmlns="http://www.w3.org/2000/svg"
   xmlns:sodipodi="http://sodipodi.sourceforge.net/DTD/sodipodi-0.dtd"
   xmlns:inkscape="http://www.inkscape.org/namespaces/inkscape"
   width="94.144867mm"
   height="61.273083mm"
   version="1.1"
   viewBox="0 0 94.144868 61.273085"
   id="svg60"
   sodipodi:docname="hero-illustration-opaque.svg"
   inkscape:version="0.92.3 (2405546, 2018-03-11)">
  <metadata
     id="metadata66">
    <rdf:RDF>
      <cc:Work
         rdf:about="">
        <dc:format>image/svg+xml</dc:format>
        <dc:type
           rdf:resource="http://purl.org/dc/dcmitype/StillImage" />
        <dc:title></dc:title>
      </cc:Work>
    </rdf:RDF>
  </metadata>
  <defs
     id="defs64" />
  <sodipodi:namedview
     pagecolor="#ffffff"
     bordercolor="#666666"
     borderopacity="1"
     objecttolerance="10"
     gridtolerance="10"
     guidetolerance="10"
     inkscape:pageopacity="0"
     inkscape:pageshadow="2"
     inkscape:window-width="1920"
     inkscape:window-height="1027"
     id="namedview62"
     showgrid="false"
     inkscape:zoom="0.49625518"
     inkscape:cx="84.751333"
     inkscape:cy="51.310641"
     inkscape:window-x="3840"
     inkscape:window-y="28"
     inkscape:window-maximized="1"
     inkscape:current-layer="g20"
     fit-margin-top="0"
     fit-margin-left="0"
     fit-margin-right="0"
     fit-margin-bottom="0" />
  <g
     transform="translate(-58.46281,-97.439855)"
     id="g58"
     style="opacity:0.2">
    <g
       transform="matrix(0.20056,0,0,0.20056,-193.96,38.04)"
       style="isolation:isolate"
       id="g56">
      <circle
         cx="1326.4"
         cy="461.17999"
         r="45.166"
         id="circle6"
         style="vector-effect:non-scaling-stroke;fill:#f2f2f2" />
      <path
         d="m 1699.4,402.52 h -253.1 v -52.962 h 253.1 z m -251.99,-1.115 h 250.87 v -50.732 h -250.87 z"
         id="path8"
         style="fill:#3f3d56"
         inkscape:connector-curvature="0" />
      <g
         id="g16"
         style="fill:#1a8bb8">
        <rect
           x="1429"
           y="360.14999"
           width="251.99001"
           height="51.847"
           id="rect10" />
        <circle
           cx="1269.7"
           cy="306.76999"
           r="3.9024999"
           id="circle12"
           style="vector-effect:non-scaling-stroke" />
        <circle
           cx="1283.1"
           cy="306.76999"
           r="3.9024999"
           id="circle14"
           style="vector-effect:non-scaling-stroke" />
      </g>
      <g
         id="g20"
         style="opacity:0.35">
        <path
           d="M 1728,601.68 H 1258.59 V 296.17 H 1728 Z m -469.41,0 468.29,-1.12 V 297.28 H 1259.7 Z"
           id="path18"
           style="fill:#f2f2f2"
           inkscape:connector-curvature="0"
           sodipodi:nodetypes="cccccccccc" />
      </g>
      <circle
         cx="1296.5"
         cy="306.76999"
         r="3.9024999"
         id="circle22"
         style="vector-effect:non-scaling-stroke;fill:#1a8bb8" />
      <g
         id="g34"
         style="fill:#3f3d56">
        <rect
           x="1259.1"
           y="313.09"
           width="468.29999"
           height="1.115"
           id="rect24" />
        <path
           d="m 1270.9,309.56 c -1.804,0 -3.43,-1.086 -4.121,-2.753 -0.69,-1.666 -0.308,-3.585 0.967,-4.86 1.276,-1.276 3.194,-1.657 4.861,-0.967 1.666,0.69 2.753,2.316 2.753,4.12 0,2.462 -1.998,4.457 -4.46,4.46 z m 0,-7.805 c -1.353,0 -2.573,0.815 -3.091,2.065 -0.517,1.25 -0.231,2.689 0.726,3.646 0.956,0.956 2.395,1.242 3.645,0.725 1.25,-0.518 2.065,-1.738 2.065,-3.091 0,-1.846 -1.499,-3.342 -3.345,-3.345 z"
           id="path26"
           inkscape:connector-curvature="0" />
        <path
           d="m 1284.2,309.56 c -1.804,0 -3.43,-1.086 -4.121,-2.753 -0.69,-1.666 -0.308,-3.585 0.967,-4.86 1.276,-1.276 3.194,-1.657 4.861,-0.967 1.666,0.69 2.753,2.316 2.753,4.12 0,2.462 -1.998,4.457 -4.46,4.46 z m 0,-7.805 c -1.353,0 -2.573,0.815 -3.091,2.065 -0.517,1.25 -0.231,2.689 0.726,3.646 0.956,0.956 2.395,1.242 3.645,0.725 1.25,-0.518 2.065,-1.738 2.065,-3.091 0,-1.846 -1.499,-3.342 -3.345,-3.345 z"
           id="path28"
           inkscape:connector-curvature="0" />
        <path
           d="m 1297.6,309.56 c -2.463,0 -4.46,-1.996 -4.46,-4.46 0,-2.463 1.997,-4.46 4.46,-4.46 2.463,0 4.46,1.997 4.46,4.46 0,2.462 -1.998,4.457 -4.46,4.46 z m 0,-7.805 c -1.353,0 -2.573,0.815 -3.091,2.065 -0.517,1.25 -0.231,2.689 0.725,3.646 0.957,0.956 2.396,1.242 3.646,0.725 1.25,-0.518 2.065,-1.738 2.065,-3.091 0,-1.846 -1.499,-3.342 -3.345,-3.345 z"
           id="path30"
           inkscape:connector-curvature="0" />
        <rect
           x="1405.6"
           y="313.64001"
           width="1.115"
           height="287.92001"
           id="rect32" />
      </g>
      <rect
         x="1458.9"
         y="455.20001"
         width="81.952003"
         height="11.15"
         id="rect36"
         style="fill:#f2f2f2" />
      <rect
         x="1587.6"
         y="455.20001"
         width="81.952003"
         height="11.15"
         id="rect38"
         style="fill:#f2f2f2" />
      <path
         d="m 1545.8,461.33 h -83.067 v -12.265 h 83.067 z m -81.952,-1.115 h 80.837 V 450.18 h -80.837 z"
         id="path40"
         style="fill:#3f3d56"
         inkscape:connector-curvature="0" />
      <rect
         x="1458.9"
         y="541.60999"
         width="81.952003"
         height="11.15"
         id="rect42"
         style="fill:#f2f2f2" />
      <path
         d="m 1545.8,547.75 h -83.067 v -12.265 h 83.067 z m -81.952,-1.115 h 80.837 V 536.6 h -80.837 z"
         id="path44"
         style="fill:#3f3d56"
         inkscape:connector-curvature="0" />
      <rect
         x="1459.1"
         y="497.29001"
         width="210.73"
         height="11.15"
         id="rect46"
         style="fill:#f2f2f2" />
      <g
         id="g54"
         style="fill:#3f3d56">
        <path
           d="m 1674.9,504.54 h -211.85 v -12.265 h 211.85 z m -210.73,-1.115 h 209.62 V 493.39 h -209.62 z"
           id="path48"
           inkscape:connector-curvature="0" />
        <path
           d="m 1674.6,461.33 h -83.067 v -12.265 h 83.067 z m -81.952,-1.115 h 80.837 V 450.18 h -80.837 z"
           id="path50"
           inkscape:connector-curvature="0" />
        <path
           d="m 1334,494.53 c -25.328,0 -45.861,-20.532 -45.861,-45.861 0,-25.328 20.533,-45.861 45.861,-45.861 25.328,0 45.861,20.533 45.861,45.861 -0.028,25.317 -20.544,45.833 -45.861,45.861 z m 0,-90.332 c -24.561,0 -44.471,19.91 -44.471,44.471 0,24.561 19.91,44.472 44.471,44.472 24.561,0 44.471,-19.911 44.471,-44.472 -0.027,-24.549 -19.922,-44.443 -44.471,-44.471 z"
           id="path52"
           inkscape:connector-curvature="0" />
      </g>
    </g>
  </g>
</svg>
