<?xml version="1.0" standalone="no"?>
<!DOCTYPE svg PUBLIC "-//W3C//DTD SVG 20010904//EN"
 "http://www.w3.org/TR/2001/REC-SVG-20010904/DTD/svg10.dtd">
<svg version="1.0" xmlns="http://www.w3.org/2000/svg"
 width="512.000000pt" height="512.000000pt" viewBox="0 0 512.000000 512.000000"
 preserveAspectRatio="xMidYMid meet">
<metadata>
Created by potrace 1.11, written by Peter Selinger 2001-2013
</metadata>
<g transform="translate(0.000000,512.000000) scale(0.100000,-0.100000)"
fill="#000000" stroke="none">
<path d="M2612 4598 c-84 -277 -137 -549 -167 -858 -23 -235 -18 -659 11 -828
l5 -33 -50 26 c-149 75 -462 187 -671 240 -323 82 -717 135 -996 135 -92 0
-104 -2 -104 -17 0 -32 70 -284 116 -423 155 -458 367 -862 636 -1208 163
-209 438 -468 649 -609 533 -359 1250 -575 1987 -600 166 -6 182 -5 182 11 0
15 3 15 29 2 l28 -15 31 102 c65 213 127 510 157 757 22 182 31 598 16 770
-30 343 -111 676 -232 953 -184 420 -514 854 -919 1210 -185 163 -465 367
-621 456 l-56 31 -31 -102z"/>
</g>
</svg>
